<svg id="Layer_1" data-name="Layer 1" xmlns="http://www.w3.org/2000/svg" viewBox="0 0 100 100"><defs><style>.cls-1{fill:#fefefe;}.cls-2{fill:#231f20;}</style></defs><path class="cls-1" d="M49.55,100c-15.47,0-30.95-.06-46.42,0C.78,100,0,99.66,0,97Q.18,50.08,0,3.13C0,.79.36,0,3,0Q49.93.18,96.84,0C99.19,0,100,.36,100,3q-.16,46.94,0,93.88c0,3.18-1.15,3.12-3.53,3.11C80.83,99.9,65.19,100,49.55,100Z"/><path class="cls-1" d="M91.93,50.45c0,11.15,0,22.29,0,33.44,0,6.41-1.6,8.08-7.83,8.09q-34.17,0-68.35,0c-6,0-7.68-1.71-7.69-7.72q0-34.18,0-68.37c0-6.26,1.64-7.83,8.08-7.84Q50,8,84,8c6.37,0,7.94,1.6,8,8C92,27.49,91.93,39,91.93,50.45Z"/><path class="cls-2" d="M49.47,59.21a9.14,9.14,0,1,1,9.44-8.83A9.14,9.14,0,0,1,49.47,59.21Z"/><path class="cls-2" d="M74.28,83.26A9.15,9.15,0,1,1,74.62,65a9.33,9.33,0,0,1,9,9.38A9.15,9.15,0,0,1,74.28,83.26Z"/><path class="cls-2" d="M83,25c-.18,4.95-4.17,9-8.84,9-5,0-9.34-4.81-9-9.92a9.41,9.41,0,0,1,9.24-8.69A9,9,0,0,1,83,25Z"/><path class="cls-2" d="M35.15,24.89a9.12,9.12,0,0,1-8.88,9c-4.64,0-9.11-4.88-8.89-9.67s4.66-9.09,9.07-9A9.17,9.17,0,0,1,35.15,24.89Z"/><path class="cls-2" d="M35.31,74.21c-.11,5.11-3.8,8.87-8.73,8.87-5.09,0-8.83-4-8.73-9.35a8.67,8.67,0,0,1,8.72-8.87C31.68,64.86,35.42,68.86,35.31,74.21Z"/></svg>