<svg id="Layer_1" data-name="Layer 1" xmlns="http://www.w3.org/2000/svg" viewBox="0 0 100 100"><defs><style>.cls-1{fill:#fefefe;}.cls-2{fill:#231f20;}</style></defs><path class="cls-1" d="M99.93,50.5c0,15.48-.06,31,.07,46.44,0,2.5-.57,3.07-3.06,3.06Q50,99.85,3.06,100C.56,100,0,99.44,0,96.94Q.15,50,0,3.06C0,.56.56,0,3.06,0Q50,.15,96.94,0C99.43,0,100,.56,100,3.06,99.87,18.87,99.93,34.69,99.93,50.5Z"/><path class="cls-1" d="M49.5,92c-11.31,0-22.62,0-33.94,0-5.72,0-7.5-1.76-7.51-7.39q0-34.69,0-69.38C8.06,9.86,9.9,8.05,15.3,8Q50,8,84.67,8c5.4,0,7.26,1.83,7.27,7.14q.06,34.94,0,69.87c0,5-2,6.87-7,6.9C73.13,92,61.31,92,49.5,92Z"/><path class="cls-2" d="M24.43,64.8c5.23,0,9.43,4,9.42,8.88,0,4.64-4.6,8.89-9.6,8.86a9.25,9.25,0,0,1-9.06-9.28A9,9,0,0,1,24.43,64.8Z"/><path class="cls-2" d="M74.59,15.81c4.89.09,9.12,4.08,9.16,8.66,0,4.76-4.41,8.89-9.5,8.81-4.83-.08-9.09-4.11-9.14-8.67C65.06,19.88,69.54,15.71,74.59,15.81Z"/></svg>