<svg id="Layer_1" data-name="Layer 1" xmlns="http://www.w3.org/2000/svg" viewBox="0 0 100 100"><defs><style>.cls-1{fill:#fefefe;}.cls-2{fill:#231f20;}</style></defs><path class="cls-1" d="M0,99.92V.08C32.14.08,64.28.14,96.42,0c3,0,3.59.6,3.58,3.58Q99.79,50,100,96.42c0,3-.6,3.59-3.58,3.58C64.28,99.86,32.14,99.92,0,99.92Z"/><path class="cls-1" d="M49.46,92c-11.32,0-22.64,0-34,0-5.72,0-7.5-1.77-7.51-7.4q0-34.66,0-69.34c0-5.33,1.85-7.14,7.25-7.15Q50,8,84.65,8.06c5.39,0,7.26,1.84,7.27,7.14Q92,50.12,91.92,85c0,5-2,6.87-7,6.9C73.09,92,61.27,92,49.46,92Z"/><path class="cls-2" d="M49.46,41.06a9.26,9.26,0,0,1,9.4,9,9.68,9.68,0,0,1-9,9.6c-4.95.26-9.71-4.31-9.74-9.37A9.58,9.58,0,0,1,49.46,41.06Z"/><path class="cls-2" d="M33.81,73.71c-.11,4.8-4.72,8.93-9.72,8.72-4.84-.21-9-4.41-9-9,.07-4.85,4.52-8.79,9.73-8.62C29.81,65,33.92,69.06,33.81,73.71Z"/><path class="cls-2" d="M74.32,33.29c-4.85,0-9.12-4-9.25-8.55s4.32-9,9.37-8.92,9.13,3.94,9.26,8.55S79.41,33.32,74.32,33.29Z"/></svg>