<svg id="Layer_1" data-name="Layer 1" xmlns="http://www.w3.org/2000/svg" viewBox="0 0 100 100"><defs><style>.cls-1{fill:#fefefe;}.cls-2{fill:#231f20;stroke:#231f20;stroke-miterlimit:10;stroke-width:2px;}</style></defs><path class="cls-1" d="M49.51,99.93c-15.48,0-31-.06-46.44.07C.6,100,0,99.46,0,96.94Q.15,50,0,3.07C0,.6.53,0,3.05,0Q50,.15,96.93,0C99.4,0,100,.53,100,3.05Q99.85,50,100,96.93c0,2.47-.53,3.09-3,3.07C81.14,99.86,65.32,99.93,49.51,99.93Z"/><path class="cls-1" d="M49.5,92c-11.31,0-22.63,0-33.94,0-5.72,0-7.5-1.77-7.51-7.4q0-34.7,0-69.37C8.07,9.86,9.9,8.05,15.31,8Q50,8,84.68,8c5.4,0,7.25,1.83,7.26,7.14q.06,34.94,0,69.87c0,5-2,6.87-7,6.9C73.12,92,61.31,92,49.5,92Z"/><path class="cls-2" d="M82.92,49.5a9.25,9.25,0,0,1-9,9.4A9.68,9.68,0,0,1,64.3,50C64,45,68.59,40.28,73.66,40.23A9.56,9.56,0,0,1,82.92,49.5Z"/><path class="cls-2" d="M83,25c-.19,5-4.18,9-8.85,9a9.52,9.52,0,0,1-9-9.94,9.43,9.43,0,0,1,9.25-8.68A9.06,9.06,0,0,1,83,25Z"/><path class="cls-2" d="M83.7,73.94a9.16,9.16,0,0,1-8.55,9.28,8.58,8.58,0,0,1-9.26-8.85A9,9,0,0,1,74.76,65,9.21,9.21,0,0,1,83.7,73.94Z"/><path class="cls-2" d="M35.16,24.38a9.13,9.13,0,0,1-8.89,9.47c-4.44,0-8.81-4.52-8.9-9.17-.1-4.81,4.49-9.59,9.1-9.48A9.16,9.16,0,0,1,35.16,24.38Z"/><path class="cls-2" d="M17.85,73.71a8.67,8.67,0,0,1,8.73-8.86c5.11,0,8.85,4,8.74,9.35a8.68,8.68,0,0,1-8.73,8.87C21.49,83.07,17.75,79.07,17.85,73.71Z"/><path class="cls-2" d="M35.25,49.7c0,4.94-3.92,9.11-8.59,9.2-4.84.09-8.92-4.24-8.88-9.42,0-5,3.91-9.11,8.59-9.22C31.24,40.16,35.27,44.44,35.25,49.7Z"/></svg>