<svg id="Layer_1" data-name="Layer 1" xmlns="http://www.w3.org/2000/svg" viewBox="0 0 100 100"><defs><style>.cls-1{fill:#fefefe;}.cls-2{fill:#231f20;}</style></defs><path class="cls-1" d="M50,99.93c-15.65,0-31.29-.06-46.94.07C.56,100,0,99.43,0,96.94Q.15,50,0,3.06C0,.56.56,0,3.06,0Q50,.15,96.94,0c2.5,0,3.07.56,3.06,3.06Q99.85,50,100,96.94c0,2.49-.56,3.08-3.06,3.06C81.29,99.87,65.65,99.93,50,99.93Z"/><path class="cls-1" d="M92,50.5c0,11.32,0,22.63,0,33.94,0,5.71-1.76,7.51-7.4,7.52q-34.69,0-69.38,0c-5.29,0-7.11-1.89-7.12-7.28Q8,50,8.05,15.3c0-5.4,1.82-7.25,7.14-7.26Q49.89,8,84.57,8c5.63,0,7.36,1.8,7.38,7.53C92,27.21,92,38.86,92,50.5Z"/><path class="cls-2" d="M74.13,83.24A9.14,9.14,0,1,1,74.32,65a9.32,9.32,0,0,1,9.37,9.55A9.17,9.17,0,0,1,74.13,83.24Z"/><path class="cls-2" d="M83,25c-.2,5-4.2,9-8.87,8.94a9.53,9.53,0,0,1-9-9.95,9.45,9.45,0,0,1,9.27-8.67A9.06,9.06,0,0,1,83,25Z"/><path class="cls-2" d="M35.15,24.78a9.14,9.14,0,0,1-8.79,9.08c-4.62,0-9.15-4.78-9-9.58s4.57-9.12,9-9.07A9.14,9.14,0,0,1,35.15,24.78Z"/><path class="cls-2" d="M35.31,74.18a8.67,8.67,0,0,1-8.7,8.89c-5.1,0-8.86-4-8.76-9.33a8.67,8.67,0,0,1,8.7-8.89C31.66,64.83,35.41,68.82,35.31,74.18Z"/></svg>