<svg id="Layer_1" data-name="Layer 1" xmlns="http://www.w3.org/2000/svg" viewBox="0 0 100 100"><defs><style>.cls-1{fill:#fefefe;}.cls-2{fill:#231f20;}</style></defs><path class="cls-1" d="M.06,50.05C.06,34.43.1,18.8,0,3.18,0,.94.2,0,3,0Q50.07.2,97.19,0C99.6,0,100,.55,100,2.85Q99.84,50,100,97.08c0,2.86-1.08,2.89-3.23,2.89Q49.91,99.9,3,100c-2.54,0-3-.64-3-3.08C.12,81.3.06,65.67.06,50.05Z"/><path class="cls-1" d="M49.88,92c-11.48,0-23,0-34.43,0-5.65,0-7.4-1.79-7.4-7.51Q8,50,8.05,15.6c0-5.75,1.73-7.53,7.35-7.54q34.68-.06,69.36,0c5.32,0,7.15,1.88,7.16,7.25Q92,50,91.92,84.67c0,5.55-1.83,7.27-7.61,7.29C72.83,92,61.35,92,49.88,92Z"/><path class="cls-2" d="M49.89,56.2a9.14,9.14,0,1,1,9-9.24A9.09,9.09,0,0,1,49.89,56.2Z"/></svg>